<svg xmlns="http://www.w3.org/2000/svg" viewBox="0 0 1200 630" width="1200" height="630" role="img" aria-label="Swadhin Biswas — Portfolio">
  <defs>
    <linearGradient id="bg" x1="0" y1="0" x2="1" y2="1">
      <stop offset="0%" stop-color="#0A0A12"/>
      <stop offset="100%" stop-color="#11111B"/>
    </linearGradient>
    <linearGradient id="aurora" x1="0" y1="0" x2="1" y2="1">
      <stop offset="0%" stop-color="#8B5CF6"/>
      <stop offset="50%" stop-color="#22D3EE"/>
      <stop offset="100%" stop-color="#34D399"/>
    </linearGradient>
    <radialGradient id="orb1" cx="0.2" cy="0.2" r="0.6">
      <stop offset="0%" stop-color="rgba(139, 92, 246, 0.4)"/>
      <stop offset="100%" stop-color="rgba(139, 92, 246, 0)"/>
    </radialGradient>
    <radialGradient id="orb2" cx="0.85" cy="0.85" r="0.5">
      <stop offset="0%" stop-color="rgba(34, 211, 238, 0.3)"/>
      <stop offset="100%" stop-color="rgba(34, 211, 238, 0)"/>
    </radialGradient>
  </defs>

  <rect width="1200" height="630" fill="url(#bg)"/>
  <rect width="1200" height="630" fill="url(#orb1)"/>
  <rect width="1200" height="630" fill="url(#orb2)"/>

  <g transform="translate(80, 215)">
    <rect width="200" height="200" rx="40" fill="#0F0F18" stroke="url(#aurora)" stroke-width="2.5"/>
    <g transform="translate(36, 36)" fill="none" stroke="url(#aurora)" stroke-width="6" stroke-linecap="round" stroke-linejoin="round">
      <path d="M48 21 C 48 14, 39 12, 32 12 C 23 12, 16 17, 16 24 C 16 31, 24 33, 32 35"/>
      <path d="M32 35 C 40 37, 48 39, 48 46 C 48 53, 39 56, 32 56 C 23 56, 16 53, 16 47"/>
    </g>
    <circle cx="100" cy="125" r="6" fill="#22D3EE"/>
  </g>

  <g font-family="ui-sans-serif, system-ui, -apple-system, Segoe UI, Roboto, sans-serif">
    <text x="340" y="290" font-size="78" font-weight="800" letter-spacing="-3" fill="#F4F4F8">Swadhin Biswas</text>
    <text x="340" y="350" font-family="ui-monospace, SF Mono, Menlo, monospace" font-size="22" font-weight="500" letter-spacing="2" fill="#A78BFA">PORTFOLIO · ENGINEERING · WRITING</text>
    <text x="340" y="430" font-size="32" font-weight="500" fill="#A6A6B5">Backend · Data · AI Systems</text>
    <text x="340" y="475" font-family="ui-monospace, SF Mono, Menlo, monospace" font-size="20" fill="#5C5C6B">swadhin.cv</text>
  </g>
</svg>
